<svg width="84" height="84" viewBox="0 0 84 84" fill="none" xmlns="http://www.w3.org/2000/svg">
<path d="M82.7429 52.1603C77.1326 74.6603 54.3413 88.3534 31.8361 82.7426C9.34005 77.133 -4.35473 54.343 1.25811 31.8443C6.86571 9.34174 29.6571 -4.35274 52.1557 1.25683C74.6596 6.8664 88.3531 29.659 82.7429 52.1603Z" fill="#F7931A"/>
<path d="M60.5198 36.0165C61.3559 30.4279 57.1003 27.4237 51.2814 25.4195L53.169 17.8491L48.5603 16.7006L46.7226 24.0715C45.5111 23.7697 44.2667 23.4849 43.0301 23.2027L44.881 15.7832L40.2749 14.6348L38.386 22.2026C37.3832 21.9742 36.3987 21.7485 35.4431 21.5109L35.4483 21.4873L29.0926 19.9005L27.8666 24.8223C27.8666 24.8223 31.286 25.6058 31.2138 25.6544C33.0804 26.1203 33.4177 27.3554 33.3612 28.3345L31.2111 36.9589C31.3398 36.9917 31.5065 37.0389 31.6903 37.1124C31.5367 37.0744 31.3726 37.0323 31.2033 36.9917L28.1894 49.0731C27.961 49.6401 27.3822 50.4906 26.0774 50.1677C26.1234 50.2347 22.7276 49.3317 22.7276 49.3317L20.4396 54.6066L26.4371 56.1015C27.5528 56.381 28.6462 56.6737 29.7226 56.9493L27.8154 64.6064L32.4188 65.7548L34.3077 58.1791C35.5652 58.5204 36.7859 58.8354 37.9804 59.132L36.0981 66.6723L40.7068 67.8207L42.6141 60.1781C50.4728 61.6651 56.3823 61.0653 58.8698 53.9582C60.8742 48.2357 58.77 44.9349 54.6352 42.7824C57.6464 42.0881 59.9146 40.1075 60.5198 36.0165ZM49.9898 50.7807C48.5655 56.5031 38.9295 53.4096 35.8054 52.6339L38.3362 42.4897C41.4602 43.2693 51.4783 44.8128 49.9898 50.7807ZM51.4153 35.9338C50.1158 41.1391 42.0955 38.4945 39.4939 37.8461L41.7884 28.6456C44.3901 29.294 52.7686 30.504 51.4153 35.9338Z" fill="white"/>
</svg>
