<svg width="84" height="84" viewBox="0 0 84 84" fill="none" xmlns="http://www.w3.org/2000/svg">
<circle cx="42" cy="42" r="42" fill="#203064"/>
<path d="M48.7302 36.3092L46.6745 41.8959L47.2732 48.1369L42.4612 48.1598H37.6945L38.3385 41.8959L36.2374 36.3092H48.7302Z" fill="white"/>
<path d="M54.4576 38.1791L48.7988 41.9189V48.5613L44.4837 52.7715V54.7561L48.6519 58.6452H52.1308L60.9074 43.1121L54.4576 38.1791Z" fill="white"/>
<path d="M32.7814 24.8025H52.0854L54.4123 34.8062H30.5336L32.7814 24.8025Z" fill="white"/>
<path d="M36.2145 41.9189L30.4876 38.225L24.0153 43.1121L32.8371 58.6911H36.3613L40.5293 54.7561V52.7715L36.2145 48.5613V41.9189Z" fill="white"/>
<path fill-rule="evenodd" clip-rule="evenodd" d="M16.8882 26.4545L42.4948 11.4719L68.0002 26.5003V56.4998L42.382 71.5283L16.8203 56.4885V26.4545H16.8882ZM42.4948 14.535L19.4408 28.0261V55.0085L42.4948 68.4998L65.4473 55.0085V28.0261L42.4948 14.535Z" fill="white"/>
</svg>
